HIERARCHY
ROOT Hips
{
	OFFSET 0.00000 0.00000 0.00000
	CHANNELS 6 Xposition Yposition Zposition Zrotation Yrotation Xrotation 
	JOINT LHipJoint
	{
		OFFSET 0 0 0
		CHANNELS 3 Zrotation Yrotation Xrotation
		JOINT LeftHip
		{
			OFFSET 1.17584 -1.63585 1.00361
			CHANNELS 3 Zrotation Yrotation Xrotation
			JOINT LeftKnee
			{
				OFFSET 2.23889 -6.15131 0.00000
				CHANNELS 3 Zrotation Yrotation Xrotation
				JOINT LeftAnkle
				{
					OFFSET 2.65161 -7.28525 0.00000
					CHANNELS 3 Zrotation Yrotation Xrotation
					JOINT LeftToe
					{
						OFFSET 0.24898 -0.68407 1.57235
						CHANNELS 3 Zrotation Yrotation Xrotation
						End Site
						{
							OFFSET 0.00000 -0.00000 0.85838
						}
					}
				}
			}
		}
	}
	JOINT RHipJoint
	{
		OFFSET 0 0 0
		CHANNELS 3 Zrotation Yrotation Xrotation
		JOINT RightHip
		{
			OFFSET -1.15592 -1.63585 1.00361
			CHANNELS 3 Zrotation Yrotation Xrotation
			JOINT RightKnee
			{
				OFFSET -2.34071 -6.43104 0.00000
				CHANNELS 3 Zrotation Yrotation Xrotation
				JOINT RightAnkle
				{
					OFFSET -2.59113 -7.11908 0.00000
					CHANNELS 3 Zrotation Yrotation Xrotation
					JOINT RightToe
					{
						OFFSET -0.17867 -0.49089 1.70981
						CHANNELS 3 Zrotation Yrotation Xrotation
						End Site
						{
							OFFSET -0.00000 -0.00000 0.89861
						}
					}
				}
			}
		}
	}
	JOINT lowerback
	{
		OFFSET 0 0 0
		CHANNELS 3 Zrotation Yrotation Xrotation
		JOINT Chest
		{
			OFFSET -0.02255 1.90764 -0.16605
			CHANNELS 3 Zrotation Yrotation Xrotation
			JOINT Chest2
			{
				OFFSET -0.00365 1.92150 -0.04898
				CHANNELS 3 Zrotation Yrotation Xrotation
				JOINT lowerneck
				{
					OFFSET 0 0 0
					CHANNELS 3 Zrotation Yrotation Xrotation
					JOINT Neck
					{
						OFFSET 0.00372 1.59170 0.08694
						CHANNELS 3 Zrotation Yrotation Xrotation
						JOINT Head
						{
							OFFSET 0.12558 1.58643 -0.08078
							CHANNELS 3 Zrotation Yrotation Xrotation
							End Site
							{
								OFFSET 0.04211 1.60835 -0.03803
							}
						}
					}
				}
				JOINT LeftCollar
				{
					OFFSET 0 0 0
					CHANNELS 3 Zrotation Yrotation Xrotation
					JOINT LeftShoulder
					{
						OFFSET 3.69324 0.96316 0.19077
CHANNELS 3 Zrotation Xrotation Yrotation
						JOINT LeftElbow
						{
OFFSET 0 -4.877960 -0.000000
CHANNELS 3 Zrotation Xrotation Yrotation
							JOINT LeftWrist
							{
OFFSET 0 -3.231690 0.000000
CHANNELS 3 Zrotation Xrotation Yrotation
								JOINT lhand
								{
									OFFSET 0 0 0
CHANNELS 3 Zrotation Xrotation Yrotation
									JOINT LFingers
									{
OFFSET 0 -0.731320 0.000000
CHANNELS 3 Zrotation Xrotation Yrotation
										End Site
										{
OFFSET 0 -0.589610 0.000000
										}
									}
								}
								JOINT LThumb
								{
OFFSET 0 0.000000 0.000000
CHANNELS 3 Zrotation Xrotation Yrotation
									End Site
									{
OFFSET 0 -0.598610 0.598610
									}
								}
							}
						}
					}
				}
				JOINT RightCollar
				{
					OFFSET 0 0 0
					CHANNELS 3 Zrotation Yrotation Xrotation
					JOINT RightShoulder
					{
						OFFSET -3.66103 0.75145 0.08281
CHANNELS 3 Zrotation Xrotation Yrotation
						JOINT RightElbow
						{
OFFSET 0 -4.914300 0.000000
CHANNELS 3 Zrotation Xrotation Yrotation
							JOINT RightWrist
							{
OFFSET 0 -3.290930 0.000000
CHANNELS 3 Zrotation Xrotation Yrotation
								JOINT rhand
								{
									OFFSET 0 0 0
CHANNELS 3 Zrotation Xrotation Yrotation
									JOINT RFingers
									{
OFFSET 0 -0.545120 0.000000
CHANNELS 3 Zrotation Xrotation Yrotation
										End Site
										{
OFFSET 0 -0.439490 0.000000
										}
									}
								}
								JOINT RThumb
								{
OFFSET 0 0.000000 0.000000
CHANNELS 3 Zrotation Xrotation Yrotation
									End Site
									{
OFFSET 0 -0.446200 0.446200
									}
								}
							}
						}
					}
				}
			}
		}
	}
}
MOTION
Frames: 4
Frame Time: 0.008333333333333333
12.968000 15.999800 1.391500 129.782000 -88.540600 -131.682000 0.000000 0.000000 0.000000 -11.427300 -4.496700 -13.936800 4.787800 13.140700 39.897600 2.842500 7.836200 -35.313900 1.566200 -7.897200 -22.402200 0.000000 0.000000 0.000000 12.916200 10.139300 -9.810100 -5.351600 -13.769200 42.320600 -1.998200 -10.915600 -32.476800 -0.039800 1.287700 -3.540600 1.173900 0.911700 -6.991800 -1.981600 1.217000 3.760700 -2.584800 0.705900 7.959700 -1.913400 -1.080800 -4.812000 5.311900 -1.807000 7.848200 2.014000 -0.770300 3.482500 0.000000 -0.000000 0.000000 10.410700 -2.147000 -36.853700 38.954800 -47.438300 17.665500 41.616600 -1.294900 18.854500 0.000000 0.000000 0.000000 -7.125000 0.000000 0.000000 8.457600 5.654700 7.669000 0.000000 -0.000000 0.000000 -4.616200 0.505100 33.914900 -34.263700 -44.279100 -14.296800 -37.297200 29.628000 23.061900 0.000000 0.000000 0.000000 7.125000 0.000000 -0.000000 -9.420500 57.886800 2.988700
12.958326 15.995765 1.410139 125.920583 -88.364598 -127.907234 0.000000 0.000000 0.000000 -11.781646 -4.565104 -13.729371 4.781327 13.133184 39.869129 2.882774 8.061428 -35.648541 1.693866 -8.196957 -23.313972 0.000000 0.000000 0.000000 12.586987 9.954630 -9.771063 -5.360355 -13.778431 42.357047 -1.976079 -10.913646 -32.344163 -0.065533 1.648027 -4.534039 1.045603 0.837772 -6.979917 -2.063433 1.134743 3.764100 -2.611315 0.659633 7.955472 -2.156512 -0.916815 -4.987335 5.179058 -1.536550 7.731623 2.027085 -0.645886 3.466495 0.000000 0.000000 0.000000 10.125919 -1.988073 -36.281120 39.160786 -47.564546 17.817395 38.047988 -1.943804 19.193068 0.000000 0.000000 0.000000 -7.125000 0.000000 0.000000 6.190361 6.246542 5.515003 0.000000 0.000000 0.000000 -4.457221 0.358699 33.980110 -33.739350 -43.890706 -13.932082 -37.173083 29.848791 22.965007 0.000000 0.000000 0.000000 7.125000 0.000000 0.000000 -9.277379 57.743389 2.910749
12.945755 15.995566 1.424099 123.743679 -88.204313 -125.700017 0.000000 0.000000 0.000000 -12.023788 -4.452429 -13.734670 4.775063 13.125995 39.841799 2.880492 8.189350 -35.705869 1.703427 -8.218845 -23.380739 0.000000 0.000000 0.000000 12.360209 10.053165 -9.720722 -5.365069 -13.783469 42.376974 -1.990781 -10.928082 -32.441341 -0.067462 1.675133 -4.608779 0.846173 0.790742 -7.077853 -2.099976 1.095508 3.751829 -2.541761 0.631761 7.989032 -2.272792 -0.830252 -5.032885 4.932493 -1.372911 7.387571 1.966365 -0.575475 3.345541 0.000000 0.000000 0.000000 9.819132 -1.897106 -35.600758 39.427531 -47.726963 18.014453 35.202934 -2.577879 19.753825 0.000000 0.000000 0.000000 -7.125000 0.000000 0.000000 4.318810 6.310119 3.830032 0.000000 0.000000 0.000000 -4.445493 0.422363 34.174815 -33.541434 -43.742028 -13.794998 -37.423966 29.822665 22.874390 0.000000 0.000000 0.000000 7.125000 0.000000 0.000000 -9.584307 57.701530 2.998440
12.936760 15.995475 1.436572 122.818598 -88.150212 -124.773586 0.000000 0.000000 0.000000 -12.137906 -4.386790 -13.728777 4.775207 13.126033 39.842155 2.886056 8.245477 -35.765713 1.717309 -8.250621 -23.477864 0.000000 0.000000 0.000000 12.290613 10.187805 -9.616531 -5.363942 -13.782267 42.372168 -1.984881 -11.096708 -32.525778 -0.077519 1.795670 -4.941458 0.829360 0.811868 -7.101983 -2.194586 1.131349 3.697704 -2.627127 0.650354 7.948801 -2.203344 -0.772713 -4.934420 4.684462 -1.264715 7.061434 1.870870 -0.530651 3.204564 0.000000 0.000000 0.000000 9.703281 -1.749694 -35.192896 39.652957 -47.862880 18.181509 32.639946 -2.985645 20.059481 0.000000 0.000000 0.000000 -7.125000 0.000000 0.000000 2.662809 6.557028 2.344553 0.000000 0.000000 0.000000 -4.221153 0.544964 34.130532 -33.307190 -43.564733 -13.633284 -37.631944 29.879512 22.771413 0.000000 0.000000 0.000000 7.125000 0.000000 0.000000 -9.839883 57.634261 3.063431
